%TF.GenerationSoftware,KiCad,Pcbnew,9.0.7*%
%TF.CreationDate,2026-02-27T18:35:03+01:00*%
%TF.ProjectId,5Volt_Power_Supply,35566f6c-745f-4506-9f77-65725f537570,rev?*%
%TF.SameCoordinates,Original*%
%TF.FileFunction,Copper,L1,Top*%
%TF.FilePolarity,Positive*%
%FSLAX46Y46*%
G04 Gerber Fmt 4.6, Leading zero omitted, Abs format (unit mm)*
G04 Created by KiCad (PCBNEW 9.0.7) date 2026-02-27 18:35:03*
%MOMM*%
%LPD*%
G01*
G04 APERTURE LIST*
G04 Aperture macros list*
%AMRoundRect*
0 Rectangle with rounded corners*
0 $1 Rounding radius*
0 $2 $3 $4 $5 $6 $7 $8 $9 X,Y pos of 4 corners*
0 Add a 4 corners polygon primitive as box body*
4,1,4,$2,$3,$4,$5,$6,$7,$8,$9,$2,$3,0*
0 Add four circle primitives for the rounded corners*
1,1,$1+$1,$2,$3*
1,1,$1+$1,$4,$5*
1,1,$1+$1,$6,$7*
1,1,$1+$1,$8,$9*
0 Add four rect primitives between the rounded corners*
20,1,$1+$1,$2,$3,$4,$5,0*
20,1,$1+$1,$4,$5,$6,$7,0*
20,1,$1+$1,$6,$7,$8,$9,0*
20,1,$1+$1,$8,$9,$2,$3,0*%
G04 Aperture macros list end*
%TA.AperFunction,ComponentPad*%
%ADD10RoundRect,0.250000X1.550000X-0.650000X1.550000X0.650000X-1.550000X0.650000X-1.550000X-0.650000X0*%
%TD*%
%TA.AperFunction,ComponentPad*%
%ADD11O,3.600000X1.800000*%
%TD*%
%TA.AperFunction,ComponentPad*%
%ADD12RoundRect,0.250000X-1.550000X0.650000X-1.550000X-0.650000X1.550000X-0.650000X1.550000X0.650000X0*%
%TD*%
%TA.AperFunction,ComponentPad*%
%ADD13R,1.905000X2.000000*%
%TD*%
%TA.AperFunction,ComponentPad*%
%ADD14O,1.905000X2.000000*%
%TD*%
%TA.AperFunction,ComponentPad*%
%ADD15C,1.400000*%
%TD*%
%TA.AperFunction,ComponentPad*%
%ADD16R,1.800000X1.800000*%
%TD*%
%TA.AperFunction,ComponentPad*%
%ADD17C,1.800000*%
%TD*%
%TA.AperFunction,ComponentPad*%
%ADD18RoundRect,0.250000X-0.870000X-0.870000X0.870000X-0.870000X0.870000X0.870000X-0.870000X0.870000X0*%
%TD*%
%TA.AperFunction,ComponentPad*%
%ADD19C,2.240000*%
%TD*%
%TA.AperFunction,ComponentPad*%
%ADD20RoundRect,0.250000X0.350000X0.350000X-0.350000X0.350000X-0.350000X-0.350000X0.350000X-0.350000X0*%
%TD*%
%TA.AperFunction,ComponentPad*%
%ADD21C,1.200000*%
%TD*%
%TA.AperFunction,ComponentPad*%
%ADD22RoundRect,0.250000X-0.350000X-0.350000X0.350000X-0.350000X0.350000X0.350000X-0.350000X0.350000X0*%
%TD*%
%TA.AperFunction,ComponentPad*%
%ADD23RoundRect,0.250000X-0.750000X0.750000X-0.750000X-0.750000X0.750000X-0.750000X0.750000X0.750000X0*%
%TD*%
%TA.AperFunction,ComponentPad*%
%ADD24C,2.000000*%
%TD*%
%TA.AperFunction,ViaPad*%
%ADD25C,0.600000*%
%TD*%
%TA.AperFunction,Conductor*%
%ADD26C,0.200000*%
%TD*%
G04 APERTURE END LIST*
D10*
%TO.P,J2,1,Pin_1*%
%TO.N,Net-(D1-K)*%
X151567500Y-84945000D03*
D11*
%TO.P,J2,2,Pin_2*%
%TO.N,Net-(D2-K)*%
X151567500Y-81445000D03*
%TD*%
D12*
%TO.P,J1,1,Pin_1*%
%TO.N,GND*%
X105500000Y-80750000D03*
D11*
%TO.P,J1,2,Pin_2*%
%TO.N,Net-(J1-Pin_2)*%
X105500000Y-84250000D03*
%TD*%
D13*
%TO.P,U1,1,IN*%
%TO.N,Net-(D3-K)*%
X133960000Y-77950000D03*
D14*
%TO.P,U1,2,GND*%
%TO.N,GND*%
X136500000Y-77950000D03*
%TO.P,U1,3,OUT*%
%TO.N,Net-(J1-Pin_2)*%
X139040000Y-77950000D03*
%TD*%
D15*
%TO.P,R1,1*%
%TO.N,Net-(J1-Pin_2)*%
X143210000Y-77250000D03*
%TO.P,R1,2*%
%TO.N,Net-(D5-A)*%
X148290000Y-77250000D03*
%TD*%
D16*
%TO.P,D5,1,K*%
%TO.N,GND*%
X143475000Y-84265000D03*
D17*
%TO.P,D5,2,A*%
%TO.N,Net-(D5-A)*%
X146015000Y-84265000D03*
%TD*%
D18*
%TO.P,D4,1,K*%
%TO.N,Net-(D3-K)*%
X111820000Y-77750000D03*
D19*
%TO.P,D4,2,A*%
%TO.N,Net-(D2-K)*%
X114360000Y-77750000D03*
%TD*%
D18*
%TO.P,D3,1,K*%
%TO.N,Net-(D3-K)*%
X119320000Y-77750000D03*
D19*
%TO.P,D3,2,A*%
%TO.N,Net-(D1-K)*%
X121860000Y-77750000D03*
%TD*%
D18*
%TO.P,D2,1,K*%
%TO.N,Net-(D2-K)*%
X111570000Y-85000000D03*
D19*
%TO.P,D2,2,A*%
%TO.N,GND*%
X114110000Y-85000000D03*
%TD*%
D18*
%TO.P,D1,1,K*%
%TO.N,Net-(D1-K)*%
X118960000Y-85250000D03*
D19*
%TO.P,D1,2,A*%
%TO.N,GND*%
X121500000Y-85250000D03*
%TD*%
D20*
%TO.P,C3,1*%
%TO.N,Net-(J1-Pin_2)*%
X134500000Y-84750000D03*
D21*
%TO.P,C3,2*%
%TO.N,GND*%
X133000000Y-84750000D03*
%TD*%
D22*
%TO.P,C2,1*%
%TO.N,Net-(D3-K)*%
X138250000Y-85000000D03*
D21*
%TO.P,C2,2*%
%TO.N,GND*%
X139750000Y-85000000D03*
%TD*%
D23*
%TO.P,C1,1*%
%TO.N,Net-(D3-K)*%
X127750000Y-75500000D03*
D24*
%TO.P,C1,2*%
%TO.N,GND*%
X127750000Y-90500000D03*
%TD*%
D25*
%TO.N,Net-(D3-K)*%
X135500000Y-80750000D03*
%TO.N,Net-(J1-Pin_2)*%
X136500000Y-82750000D03*
%TO.N,Net-(D2-K)*%
X123500000Y-81500000D03*
%TD*%
D26*
%TO.N,Net-(D3-K)*%
X135500000Y-79490000D02*
X135500000Y-80750000D01*
X133960000Y-77950000D02*
X135500000Y-79490000D01*
%TO.N,Net-(J1-Pin_2)*%
X136500000Y-82750000D02*
X134500000Y-84750000D01*
%TO.N,Net-(D1-K)*%
X151567500Y-84945000D02*
X148723500Y-82101000D01*
X148723500Y-82101000D02*
X122109000Y-82101000D01*
X122109000Y-82101000D02*
X118960000Y-85250000D01*
%TO.N,Net-(D2-K)*%
X123555000Y-81445000D02*
X123500000Y-81500000D01*
X151567500Y-81445000D02*
X123555000Y-81445000D01*
%TO.N,Net-(J1-Pin_2)*%
X139040000Y-77950000D02*
X142510000Y-77950000D01*
X142510000Y-77950000D02*
X143210000Y-77250000D01*
%TO.N,Net-(D3-K)*%
X127750000Y-75500000D02*
X131510000Y-75500000D01*
X131510000Y-75500000D02*
X133960000Y-77950000D01*
X119320000Y-77750000D02*
X121570000Y-75500000D01*
X121570000Y-75500000D02*
X127750000Y-75500000D01*
%TO.N,Net-(D2-K)*%
X111570000Y-85000000D02*
X111570000Y-82930000D01*
X111570000Y-82930000D02*
X114360000Y-80140000D01*
X114360000Y-80140000D02*
X114360000Y-77750000D01*
%TO.N,Net-(D1-K)*%
X118960000Y-85250000D02*
X118960000Y-84290000D01*
X118960000Y-84290000D02*
X121860000Y-81390000D01*
X121860000Y-81390000D02*
X121860000Y-77750000D01*
%TO.N,Net-(J1-Pin_2)*%
X114000000Y-92750000D02*
X130250000Y-92750000D01*
X134500000Y-88500000D02*
X134500000Y-84750000D01*
X105500000Y-84250000D02*
X114000000Y-92750000D01*
X130250000Y-92750000D02*
X134500000Y-88500000D01*
%TD*%
%TA.AperFunction,Conductor*%
%TO.N,GND*%
G36*
X162943039Y-71269685D02*
G01*
X162988794Y-71322489D01*
X163000000Y-71374000D01*
X163000000Y-96376000D01*
X162980315Y-96443039D01*
X162927511Y-96488794D01*
X162876000Y-96500000D01*
X95624000Y-96500000D01*
X95556961Y-96480315D01*
X95511206Y-96427511D01*
X95500000Y-96376000D01*
X95500000Y-84139778D01*
X103199500Y-84139778D01*
X103199500Y-84360221D01*
X103233985Y-84577952D01*
X103302103Y-84787603D01*
X103302104Y-84787606D01*
X103402187Y-84984025D01*
X103531752Y-85162358D01*
X103531756Y-85162363D01*
X103687636Y-85318243D01*
X103687641Y-85318247D01*
X103800167Y-85400001D01*
X103865978Y-85447815D01*
X103973881Y-85502795D01*
X104062393Y-85547895D01*
X104062396Y-85547896D01*
X104167221Y-85581955D01*
X104272049Y-85616015D01*
X104489778Y-85650500D01*
X105999903Y-85650500D01*
X106066942Y-85670185D01*
X106087584Y-85686819D01*
X113515139Y-93114374D01*
X113515149Y-93114385D01*
X113519479Y-93118715D01*
X113519480Y-93118716D01*
X113631284Y-93230520D01*
X113718095Y-93280639D01*
X113718097Y-93280641D01*
X113768213Y-93309576D01*
X113768215Y-93309577D01*
X113920942Y-93350500D01*
X113920943Y-93350500D01*
X130163331Y-93350500D01*
X130163347Y-93350501D01*
X130170943Y-93350501D01*
X130329054Y-93350501D01*
X130329057Y-93350501D01*
X130481785Y-93309577D01*
X130531904Y-93280639D01*
X130618716Y-93230520D01*
X130730520Y-93118716D01*
X130730520Y-93118714D01*
X130740728Y-93108507D01*
X130740729Y-93108504D01*
X134980520Y-88868716D01*
X135059577Y-88731784D01*
X135100501Y-88579057D01*
X135100501Y-88420942D01*
X135100501Y-88413347D01*
X135100500Y-88413329D01*
X135100500Y-85895908D01*
X135120185Y-85828869D01*
X135164271Y-85790363D01*
X135163187Y-85788605D01*
X135169332Y-85784814D01*
X135169334Y-85784814D01*
X135318656Y-85692712D01*
X135442712Y-85568656D01*
X135534814Y-85419334D01*
X135589999Y-85252797D01*
X135600500Y-85150009D01*
X135600499Y-84599983D01*
X137149500Y-84599983D01*
X137149500Y-85400001D01*
X137149501Y-85400019D01*
X137160000Y-85502796D01*
X137160001Y-85502799D01*
X137215185Y-85669331D01*
X137215187Y-85669336D01*
X137250069Y-85725888D01*
X137307288Y-85818656D01*
X137431344Y-85942712D01*
X137580666Y-86034814D01*
X137747203Y-86089999D01*
X137849991Y-86100500D01*
X138650008Y-86100499D01*
X138650016Y-86100498D01*
X138650019Y-86100498D01*
X138706302Y-86094748D01*
X138752797Y-86089999D01*
X138919334Y-86034814D01*
X139068656Y-85942712D01*
X139192712Y-85818656D01*
X139284814Y-85669334D01*
X139339999Y-85502797D01*
X139350500Y-85400009D01*
X139350499Y-84599992D01*
X139348247Y-84577951D01*
X139339999Y-84497203D01*
X139339998Y-84497200D01*
X139299578Y-84375221D01*
X139284814Y-84330666D01*
X139192712Y-84181344D01*
X139068656Y-84057288D01*
X138975888Y-84000069D01*
X138919336Y-83965187D01*
X138919331Y-83965185D01*
X138917862Y-83964698D01*
X138752797Y-83910001D01*
X138752795Y-83910000D01*
X138650010Y-83899500D01*
X137849998Y-83899500D01*
X137849980Y-83899501D01*
X137747203Y-83910000D01*
X137747200Y-83910001D01*
X137580668Y-83965185D01*
X137580663Y-83965187D01*
X137431342Y-84057289D01*
X137307289Y-84181342D01*
X137215187Y-84330663D01*
X137215185Y-84330668D01*
X137187349Y-84414670D01*
X137160001Y-84497203D01*
X137160001Y-84497204D01*
X137160000Y-84497204D01*
X137149500Y-84599983D01*
X135600499Y-84599983D01*
X135600499Y-84550095D01*
X135620184Y-84483057D01*
X135636813Y-84462420D01*
X136514662Y-83584572D01*
X136575983Y-83551089D01*
X136578150Y-83550638D01*
X136636085Y-83539113D01*
X136733497Y-83519737D01*
X136879179Y-83459394D01*
X137010289Y-83371789D01*
X137121789Y-83260289D01*
X137209394Y-83129179D01*
X137269737Y-82983497D01*
X137300500Y-82828842D01*
X137300500Y-82825500D01*
X137300995Y-82823812D01*
X137301097Y-82822782D01*
X137301292Y-82822801D01*
X137320185Y-82758461D01*
X137372989Y-82712706D01*
X137424500Y-82701500D01*
X145511937Y-82701500D01*
X145578976Y-82721185D01*
X145624731Y-82773989D01*
X145634675Y-82843147D01*
X145605650Y-82906703D01*
X145550255Y-82943431D01*
X145477396Y-82967103D01*
X145477393Y-82967104D01*
X145280974Y-83067187D01*
X145102641Y-83196752D01*
X145102636Y-83196756D01*
X144946756Y-83352636D01*
X144946752Y-83352641D01*
X144817187Y-83530974D01*
X144717104Y-83727393D01*
X144717103Y-83727396D01*
X144648985Y-83937047D01*
X144614500Y-84154778D01*
X144614500Y-84375221D01*
X144648985Y-84592952D01*
X144717103Y-84802603D01*
X144717104Y-84802606D01*
X144817187Y-84999025D01*
X144946752Y-85177358D01*
X144946756Y-85177363D01*
X145102636Y-85333243D01*
X145102641Y-85333247D01*
X145194521Y-85400001D01*
X145280978Y-85462815D01*
X145409375Y-85528237D01*
X145477393Y-85562895D01*
X145477396Y-85562896D01*
X145582221Y-85596955D01*
X145687049Y-85631015D01*
X145904778Y-85665500D01*
X145904779Y-85665500D01*
X146125221Y-85665500D01*
X146125222Y-85665500D01*
X146342951Y-85631015D01*
X146552606Y-85562895D01*
X146749022Y-85462815D01*
X146927365Y-85333242D01*
X147083242Y-85177365D01*
X147212815Y-84999022D01*
X147312895Y-84802606D01*
X147381015Y-84592951D01*
X147415500Y-84375222D01*
X147415500Y-84154778D01*
X147381015Y-83937049D01*
X147332356Y-83787289D01*
X147312896Y-83727396D01*
X147312895Y-83727393D01*
X147271762Y-83646666D01*
X147212815Y-83530978D01*
X147160809Y-83459397D01*
X147083247Y-83352641D01*
X147083243Y-83352636D01*
X146927363Y-83196756D01*
X146927358Y-83196752D01*
X146749025Y-83067187D01*
X146749024Y-83067186D01*
X146749022Y-83067185D01*
X146686096Y-83035122D01*
X146552606Y-82967104D01*
X146552603Y-82967103D01*
X146479745Y-82943431D01*
X146422070Y-82903994D01*
X146394871Y-82839635D01*
X146406785Y-82770789D01*
X146454029Y-82719313D01*
X146518063Y-82701500D01*
X148423403Y-82701500D01*
X148490442Y-82721185D01*
X148511084Y-82737819D01*
X149424516Y-83651251D01*
X149458001Y-83712574D01*
X149453017Y-83782266D01*
X149428653Y-83820183D01*
X149429272Y-83820672D01*
X149424793Y-83826336D01*
X149332687Y-83975663D01*
X149332685Y-83975668D01*
X149332176Y-83977204D01*
X149277501Y-84142203D01*
X149277501Y-84142204D01*
X149277500Y-84142204D01*
X149267000Y-84244983D01*
X149267000Y-85645001D01*
X149267001Y-85645018D01*
X149277500Y-85747796D01*
X149277501Y-85747799D01*
X149332685Y-85914331D01*
X149332687Y-85914336D01*
X149367569Y-85970888D01*
X149424788Y-86063656D01*
X149548844Y-86187712D01*
X149698166Y-86279814D01*
X149864703Y-86334999D01*
X149967491Y-86345500D01*
X153167508Y-86345499D01*
X153270297Y-86334999D01*
X153436834Y-86279814D01*
X153586156Y-86187712D01*
X153710212Y-86063656D01*
X153802314Y-85914334D01*
X153857499Y-85747797D01*
X153868000Y-85645009D01*
X153867999Y-84244992D01*
X153857499Y-84142203D01*
X153802314Y-83975666D01*
X153710212Y-83826344D01*
X153586156Y-83702288D01*
X153485172Y-83640001D01*
X153436836Y-83610187D01*
X153436831Y-83610185D01*
X153385516Y-83593181D01*
X153270297Y-83555001D01*
X153270295Y-83555000D01*
X153167516Y-83544500D01*
X153167509Y-83544500D01*
X151067597Y-83544500D01*
X151000558Y-83524815D01*
X150979916Y-83508181D01*
X150528916Y-83057181D01*
X150495431Y-82995858D01*
X150500415Y-82926166D01*
X150542287Y-82870233D01*
X150607751Y-82845816D01*
X150616597Y-82845500D01*
X152577721Y-82845500D01*
X152577722Y-82845500D01*
X152795451Y-82811015D01*
X153005106Y-82742895D01*
X153201522Y-82642815D01*
X153379865Y-82513242D01*
X153535742Y-82357365D01*
X153665315Y-82179022D01*
X153765395Y-81982606D01*
X153833515Y-81772951D01*
X153868000Y-81555222D01*
X153868000Y-81334778D01*
X153833515Y-81117049D01*
X153765395Y-80907394D01*
X153765395Y-80907393D01*
X153696413Y-80772011D01*
X153665315Y-80710978D01*
X153599594Y-80620520D01*
X153535747Y-80532641D01*
X153535743Y-80532636D01*
X153379863Y-80376756D01*
X153379858Y-80376752D01*
X153201525Y-80247187D01*
X153201524Y-80247186D01*
X153201522Y-80247185D01*
X153138596Y-80215122D01*
X153005106Y-80147104D01*
X153005103Y-80147103D01*
X152795452Y-80078985D01*
X152681513Y-80060939D01*
X152577722Y-80044500D01*
X150557278Y-80044500D01*
X150501528Y-80053330D01*
X150339547Y-80078985D01*
X150129896Y-80147103D01*
X150129893Y-80147104D01*
X149933474Y-80247187D01*
X149755141Y-80376752D01*
X149755136Y-80376756D01*
X149599256Y-80532636D01*
X149599252Y-80532641D01*
X149469685Y-80710976D01*
X149436148Y-80776796D01*
X149388174Y-80827591D01*
X149325664Y-80844500D01*
X136424500Y-80844500D01*
X136357461Y-80824815D01*
X136311706Y-80772011D01*
X136300500Y-80720500D01*
X136300500Y-80671155D01*
X136300499Y-80671153D01*
X136292459Y-80630732D01*
X136269737Y-80516503D01*
X136230553Y-80421904D01*
X136209397Y-80370827D01*
X136209390Y-80370814D01*
X136121398Y-80239125D01*
X136100520Y-80172447D01*
X136100500Y-80170234D01*
X136100500Y-79579059D01*
X136100501Y-79579046D01*
X136100501Y-79410945D01*
X136100501Y-79410943D01*
X136059577Y-79258215D01*
X136030639Y-79208095D01*
X135980520Y-79121284D01*
X135868716Y-79009480D01*
X135868715Y-79009479D01*
X135864385Y-79005149D01*
X135864374Y-79005139D01*
X135449318Y-78590083D01*
X135415833Y-78528760D01*
X135412999Y-78502402D01*
X135412999Y-77788146D01*
X137587000Y-77788146D01*
X137587000Y-78111853D01*
X137622778Y-78337746D01*
X137622778Y-78337749D01*
X137693450Y-78555255D01*
X137693452Y-78555258D01*
X137797283Y-78759038D01*
X137931714Y-78944066D01*
X138093434Y-79105786D01*
X138278462Y-79240217D01*
X138405237Y-79304812D01*
X138482244Y-79344049D01*
X138699751Y-79414721D01*
X138699752Y-79414721D01*
X138699755Y-79414722D01*
X138925646Y-79450500D01*
X138925647Y-79450500D01*
X139154353Y-79450500D01*
X139154354Y-79450500D01*
X139380245Y-79414722D01*
X139380248Y-79414721D01*
X139380249Y-79414721D01*
X139597755Y-79344049D01*
X139597755Y-79344048D01*
X139597758Y-79344048D01*
X139801538Y-79240217D01*
X139986566Y-79105786D01*
X140148286Y-78944066D01*
X140282717Y-78759038D01*
X140354475Y-78618205D01*
X140402450Y-78567409D01*
X140464960Y-78550500D01*
X142423331Y-78550500D01*
X142423347Y-78550501D01*
X142430943Y-78550501D01*
X142589054Y-78550501D01*
X142589057Y-78550501D01*
X142741785Y-78509577D01*
X142791904Y-78480639D01*
X142864512Y-78438720D01*
X142932410Y-78422250D01*
X142945900Y-78423635D01*
X142989369Y-78430520D01*
X143115514Y-78450500D01*
X143115519Y-78450500D01*
X143304486Y-78450500D01*
X143491118Y-78420940D01*
X143521753Y-78410986D01*
X143670832Y-78362547D01*
X143839199Y-78276760D01*
X143992073Y-78165690D01*
X144125690Y-78032073D01*
X144236760Y-77879199D01*
X144322547Y-77710832D01*
X144380940Y-77531118D01*
X144410500Y-77344486D01*
X144410500Y-77155513D01*
X147089500Y-77155513D01*
X147089500Y-77344486D01*
X147119059Y-77531118D01*
X147177454Y-77710836D01*
X147216846Y-77788146D01*
X147263240Y-77879199D01*
X147374310Y-78032073D01*
X147507927Y-78165690D01*
X147660801Y-78276760D01*
X147740347Y-78317290D01*
X147829163Y-78362545D01*
X147829165Y-78362545D01*
X147829168Y-78362547D01*
X147925497Y-78393846D01*
X148008881Y-78420940D01*
X148195514Y-78450500D01*
X148195519Y-78450500D01*
X148384486Y-78450500D01*
X148571118Y-78420940D01*
X148601753Y-78410986D01*
X148750832Y-78362547D01*
X148919199Y-78276760D01*
X149072073Y-78165690D01*
X149205690Y-78032073D01*
X149316760Y-77879199D01*
X149402547Y-77710832D01*
X149460940Y-77531118D01*
X149490500Y-77344486D01*
X149490500Y-77155513D01*
X149460940Y-76968881D01*
X149433846Y-76885497D01*
X149402547Y-76789168D01*
X149402545Y-76789165D01*
X149402545Y-76789163D01*
X149316759Y-76620800D01*
X149296165Y-76592455D01*
X149205690Y-76467927D01*
X149072073Y-76334310D01*
X148919199Y-76223240D01*
X148864138Y-76195185D01*
X148750836Y-76137454D01*
X148571118Y-76079059D01*
X148384486Y-76049500D01*
X148384481Y-76049500D01*
X148195519Y-76049500D01*
X148195514Y-76049500D01*
X148008881Y-76079059D01*
X147829163Y-76137454D01*
X147660800Y-76223240D01*
X147626412Y-76248225D01*
X147507927Y-76334310D01*
X147507925Y-76334312D01*
X147507924Y-76334312D01*
X147374312Y-76467924D01*
X147374312Y-76467925D01*
X147374310Y-76467927D01*
X147346500Y-76506204D01*
X147263240Y-76620800D01*
X147177454Y-76789163D01*
X147119059Y-76968881D01*
X147089500Y-77155513D01*
X144410500Y-77155513D01*
X144380940Y-76968881D01*
X144353846Y-76885497D01*
X144322547Y-76789168D01*
X144322545Y-76789165D01*
X144322545Y-76789163D01*
X144236759Y-76620800D01*
X144216165Y-76592455D01*
X144125690Y-76467927D01*
X143992073Y-76334310D01*
X143839199Y-76223240D01*
X143784138Y-76195185D01*
X143670836Y-76137454D01*
X143491118Y-76079059D01*
X143304486Y-76049500D01*
X143304481Y-76049500D01*
X143115519Y-76049500D01*
X143115514Y-76049500D01*
X142928881Y-76079059D01*
X142749163Y-76137454D01*
X142580800Y-76223240D01*
X142546412Y-76248225D01*
X142427927Y-76334310D01*
X142427925Y-76334312D01*
X142427924Y-76334312D01*
X142294312Y-76467924D01*
X142294312Y-76467925D01*
X142294310Y-76467927D01*
X142266500Y-76506204D01*
X142183240Y-76620800D01*
X142097454Y-76789163D01*
X142039059Y-76968881D01*
X142009500Y-77155513D01*
X142009500Y-77225500D01*
X141989815Y-77292539D01*
X141937011Y-77338294D01*
X141885500Y-77349500D01*
X140464960Y-77349500D01*
X140397921Y-77329815D01*
X140354475Y-77281795D01*
X140282716Y-77140961D01*
X140148286Y-76955934D01*
X139986566Y-76794214D01*
X139801538Y-76659783D01*
X139597755Y-76555950D01*
X139380248Y-76485278D01*
X139194812Y-76455908D01*
X139154354Y-76449500D01*
X138925646Y-76449500D01*
X138885188Y-76455908D01*
X138699753Y-76485278D01*
X138699750Y-76485278D01*
X138482244Y-76555950D01*
X138278461Y-76659783D01*
X138185665Y-76727204D01*
X138093434Y-76794214D01*
X138093432Y-76794216D01*
X138093431Y-76794216D01*
X137931716Y-76955931D01*
X137931716Y-76955932D01*
X137931714Y-76955934D01*
X137899336Y-77000499D01*
X137797283Y-77140961D01*
X137693450Y-77344744D01*
X137622778Y-77562250D01*
X137622778Y-77562253D01*
X137587000Y-77788146D01*
X135412999Y-77788146D01*
X135412999Y-76902129D01*
X135412998Y-76902123D01*
X135412842Y-76900673D01*
X135406591Y-76842517D01*
X135386691Y-76789163D01*
X135356297Y-76707671D01*
X135356293Y-76707664D01*
X135270047Y-76592455D01*
X135270044Y-76592452D01*
X135154835Y-76506206D01*
X135154828Y-76506202D01*
X135019982Y-76455908D01*
X135019983Y-76455908D01*
X134960383Y-76449501D01*
X134960381Y-76449500D01*
X134960373Y-76449500D01*
X134960365Y-76449500D01*
X133360097Y-76449500D01*
X133293058Y-76429815D01*
X133272416Y-76413181D01*
X131997590Y-75138355D01*
X131997588Y-75138352D01*
X131878717Y-75019481D01*
X131878716Y-75019480D01*
X131791904Y-74969360D01*
X131791904Y-74969359D01*
X131791900Y-74969358D01*
X131741785Y-74940423D01*
X131589057Y-74899499D01*
X131430943Y-74899499D01*
X131423347Y-74899499D01*
X131423331Y-74899500D01*
X129374499Y-74899500D01*
X129307460Y-74879815D01*
X129261705Y-74827011D01*
X129250499Y-74775500D01*
X129250499Y-74699998D01*
X129250498Y-74699981D01*
X129239999Y-74597203D01*
X129239998Y-74597200D01*
X129184814Y-74430666D01*
X129092712Y-74281344D01*
X128968656Y-74157288D01*
X128819334Y-74065186D01*
X128652797Y-74010001D01*
X128652795Y-74010000D01*
X128550010Y-73999500D01*
X126949998Y-73999500D01*
X126949981Y-73999501D01*
X126847203Y-74010000D01*
X126847200Y-74010001D01*
X126680668Y-74065185D01*
X126680663Y-74065187D01*
X126531342Y-74157289D01*
X126407289Y-74281342D01*
X126315187Y-74430663D01*
X126315186Y-74430666D01*
X126260001Y-74597203D01*
X126260001Y-74597204D01*
X126260000Y-74597204D01*
X126249500Y-74699983D01*
X126249500Y-74775500D01*
X126229815Y-74842539D01*
X126177011Y-74888294D01*
X126125500Y-74899500D01*
X121656670Y-74899500D01*
X121656654Y-74899499D01*
X121649058Y-74899499D01*
X121490943Y-74899499D01*
X121414579Y-74919961D01*
X121338214Y-74940423D01*
X121338209Y-74940426D01*
X121201290Y-75019475D01*
X121201282Y-75019481D01*
X120127582Y-76093181D01*
X120066259Y-76126666D01*
X120039901Y-76129500D01*
X118399998Y-76129500D01*
X118399981Y-76129501D01*
X118297203Y-76140000D01*
X118297200Y-76140001D01*
X118130668Y-76195185D01*
X118130663Y-76195187D01*
X117981342Y-76287289D01*
X117857289Y-76411342D01*
X117765187Y-76560663D01*
X117765185Y-76560668D01*
X117745259Y-76620801D01*
X117710001Y-76727203D01*
X117710001Y-76727204D01*
X117710000Y-76727204D01*
X117699500Y-76829983D01*
X117699500Y-78670001D01*
X117699501Y-78670018D01*
X117710000Y-78772796D01*
X117710001Y-78772799D01*
X117765185Y-78939331D01*
X117765187Y-78939336D01*
X117768105Y-78944067D01*
X117857288Y-79088656D01*
X117981344Y-79212712D01*
X118130666Y-79304814D01*
X118297203Y-79359999D01*
X118399991Y-79370500D01*
X120240008Y-79370499D01*
X120342797Y-79359999D01*
X120509334Y-79304814D01*
X120658656Y-79212712D01*
X120776348Y-79095019D01*
X120837667Y-79061537D01*
X120907359Y-79066521D01*
X120936908Y-79082383D01*
X121010673Y-79135976D01*
X121161276Y-79212712D01*
X121191795Y-79228262D01*
X121242591Y-79276236D01*
X121259500Y-79338747D01*
X121259500Y-81089902D01*
X121239815Y-81156941D01*
X121223181Y-81177583D01*
X118807582Y-83593181D01*
X118746259Y-83626666D01*
X118719901Y-83629500D01*
X118039998Y-83629500D01*
X118039980Y-83629501D01*
X117937203Y-83640000D01*
X117937200Y-83640001D01*
X117770668Y-83695185D01*
X117770663Y-83695187D01*
X117621342Y-83787289D01*
X117497289Y-83911342D01*
X117405187Y-84060663D01*
X117405185Y-84060668D01*
X117398558Y-84080668D01*
X117350001Y-84227203D01*
X117350001Y-84227204D01*
X117350000Y-84227204D01*
X117339500Y-84329983D01*
X117339500Y-86170001D01*
X117339501Y-86170018D01*
X117350000Y-86272796D01*
X117350001Y-86272799D01*
X117405185Y-86439331D01*
X117405187Y-86439336D01*
X117440069Y-86495888D01*
X117497288Y-86588656D01*
X117621344Y-86712712D01*
X117770666Y-86804814D01*
X117937203Y-86859999D01*
X118039991Y-86870500D01*
X119880008Y-86870499D01*
X119982797Y-86859999D01*
X120149334Y-86804814D01*
X120298656Y-86712712D01*
X120422712Y-86588656D01*
X120514814Y-86439334D01*
X120569999Y-86272797D01*
X120580500Y-86170009D01*
X120580499Y-84530096D01*
X120600184Y-84463058D01*
X120616813Y-84442421D01*
X122321417Y-82737819D01*
X122382740Y-82704334D01*
X122409098Y-82701500D01*
X135399903Y-82701500D01*
X135466942Y-82721185D01*
X135512697Y-82773989D01*
X135522641Y-82843147D01*
X135493616Y-82906703D01*
X135487584Y-82913181D01*
X134787582Y-83613181D01*
X134726259Y-83646666D01*
X134699901Y-83649500D01*
X134099998Y-83649500D01*
X134099980Y-83649501D01*
X133997203Y-83660000D01*
X133997200Y-83660001D01*
X133830668Y-83715185D01*
X133830663Y-83715187D01*
X133681342Y-83807289D01*
X133557289Y-83931342D01*
X133465187Y-84080663D01*
X133465185Y-84080668D01*
X133445598Y-84139778D01*
X133410001Y-84247203D01*
X133410001Y-84247204D01*
X133410000Y-84247204D01*
X133399500Y-84349983D01*
X133399500Y-85150001D01*
X133399501Y-85150019D01*
X133410000Y-85252796D01*
X133410001Y-85252799D01*
X133458780Y-85400001D01*
X133465186Y-85419334D01*
X133557288Y-85568656D01*
X133681344Y-85692712D01*
X133830666Y-85784814D01*
X133830667Y-85784814D01*
X133836813Y-85788605D01*
X133835706Y-85790399D01*
X133880337Y-85829687D01*
X133899500Y-85895908D01*
X133899500Y-88199902D01*
X133879815Y-88266941D01*
X133863181Y-88287583D01*
X130037584Y-92113181D01*
X129976261Y-92146666D01*
X129949903Y-92149500D01*
X114300097Y-92149500D01*
X114233058Y-92129815D01*
X114212416Y-92113181D01*
X107452602Y-85353367D01*
X107419117Y-85292044D01*
X107424101Y-85222352D01*
X107452602Y-85178005D01*
X107453249Y-85177358D01*
X107468242Y-85162365D01*
X107597815Y-84984022D01*
X107697895Y-84787606D01*
X107766015Y-84577951D01*
X107800500Y-84360222D01*
X107800500Y-84139778D01*
X107791029Y-84079983D01*
X109949500Y-84079983D01*
X109949500Y-85920001D01*
X109949501Y-85920018D01*
X109960000Y-86022796D01*
X109960001Y-86022799D01*
X109985749Y-86100499D01*
X110015186Y-86189334D01*
X110107288Y-86338656D01*
X110231344Y-86462712D01*
X110380666Y-86554814D01*
X110547203Y-86609999D01*
X110649991Y-86620500D01*
X112490008Y-86620499D01*
X112592797Y-86609999D01*
X112759334Y-86554814D01*
X112908656Y-86462712D01*
X113032712Y-86338656D01*
X113124814Y-86189334D01*
X113179999Y-86022797D01*
X113190500Y-85920009D01*
X113190499Y-84079992D01*
X113179999Y-83977203D01*
X113124814Y-83810666D01*
X113032712Y-83661344D01*
X112908656Y-83537288D01*
X112782369Y-83459394D01*
X112759336Y-83445187D01*
X112759331Y-83445185D01*
X112757862Y-83444698D01*
X112592797Y-83390001D01*
X112592795Y-83390000D01*
X112490016Y-83379500D01*
X112490009Y-83379500D01*
X112294500Y-83379500D01*
X112285814Y-83376949D01*
X112276853Y-83378238D01*
X112252812Y-83367259D01*
X112227461Y-83359815D01*
X112221533Y-83352974D01*
X112213297Y-83349213D01*
X112199007Y-83326978D01*
X112181706Y-83307011D01*
X112179418Y-83296496D01*
X112175523Y-83290435D01*
X112170500Y-83255500D01*
X112170500Y-83230096D01*
X112190185Y-83163057D01*
X112206814Y-83142420D01*
X114728713Y-80620521D01*
X114728716Y-80620520D01*
X114840520Y-80508716D01*
X114890639Y-80421904D01*
X114919577Y-80371785D01*
X114960501Y-80219057D01*
X114960501Y-80060943D01*
X114960501Y-80053348D01*
X114960500Y-80053330D01*
X114960500Y-79338747D01*
X114980185Y-79271708D01*
X115028205Y-79228262D01*
X115031265Y-79226702D01*
X115209327Y-79135976D01*
X115415685Y-78986048D01*
X115596048Y-78805685D01*
X115745976Y-78599327D01*
X115861776Y-78372056D01*
X115940598Y-78129468D01*
X115943388Y-78111853D01*
X115980500Y-77877541D01*
X115980500Y-77622458D01*
X115940598Y-77370531D01*
X115893474Y-77225500D01*
X115861776Y-77127944D01*
X115861774Y-77127941D01*
X115861774Y-77127939D01*
X115780730Y-76968882D01*
X115745976Y-76900673D01*
X115596048Y-76694315D01*
X115415685Y-76513952D01*
X115209327Y-76364024D01*
X115151010Y-76334310D01*
X114982060Y-76248225D01*
X114739468Y-76169401D01*
X114487541Y-76129500D01*
X114487536Y-76129500D01*
X114232464Y-76129500D01*
X114232459Y-76129500D01*
X113980531Y-76169401D01*
X113737939Y-76248225D01*
X113510674Y-76364023D01*
X113510672Y-76364024D01*
X113436910Y-76417615D01*
X113371104Y-76441094D01*
X113303050Y-76425268D01*
X113276345Y-76404977D01*
X113158657Y-76287289D01*
X113158656Y-76287288D01*
X113009334Y-76195186D01*
X112842797Y-76140001D01*
X112842795Y-76140000D01*
X112740010Y-76129500D01*
X110899998Y-76129500D01*
X110899981Y-76129501D01*
X110797203Y-76140000D01*
X110797200Y-76140001D01*
X110630668Y-76195185D01*
X110630663Y-76195187D01*
X110481342Y-76287289D01*
X110357289Y-76411342D01*
X110265187Y-76560663D01*
X110265185Y-76560668D01*
X110245259Y-76620801D01*
X110210001Y-76727203D01*
X110210001Y-76727204D01*
X110210000Y-76727204D01*
X110199500Y-76829983D01*
X110199500Y-78670001D01*
X110199501Y-78670018D01*
X110210000Y-78772796D01*
X110210001Y-78772799D01*
X110265185Y-78939331D01*
X110265187Y-78939336D01*
X110268105Y-78944067D01*
X110357288Y-79088656D01*
X110481344Y-79212712D01*
X110630666Y-79304814D01*
X110797203Y-79359999D01*
X110899991Y-79370500D01*
X112740008Y-79370499D01*
X112842797Y-79359999D01*
X113009334Y-79304814D01*
X113158656Y-79212712D01*
X113276348Y-79095019D01*
X113337667Y-79061537D01*
X113407359Y-79066521D01*
X113436908Y-79082383D01*
X113510673Y-79135976D01*
X113661276Y-79212712D01*
X113691795Y-79228262D01*
X113742591Y-79276236D01*
X113759500Y-79338747D01*
X113759500Y-79839902D01*
X113739815Y-79906941D01*
X113723181Y-79927583D01*
X111089481Y-82561282D01*
X111089480Y-82561284D01*
X111042409Y-82642815D01*
X111039361Y-82648094D01*
X111039359Y-82648096D01*
X111010425Y-82698209D01*
X111010424Y-82698210D01*
X110994544Y-82757472D01*
X110969499Y-82850943D01*
X110969499Y-82850945D01*
X110969499Y-83019046D01*
X110969500Y-83019059D01*
X110969500Y-83255500D01*
X110949815Y-83322539D01*
X110897011Y-83368294D01*
X110845501Y-83379500D01*
X110649999Y-83379500D01*
X110649980Y-83379501D01*
X110547203Y-83390000D01*
X110547200Y-83390001D01*
X110380668Y-83445185D01*
X110380663Y-83445187D01*
X110231342Y-83537289D01*
X110107289Y-83661342D01*
X110015187Y-83810663D01*
X110015186Y-83810666D01*
X109960001Y-83977203D01*
X109960001Y-83977204D01*
X109960000Y-83977204D01*
X109949500Y-84079983D01*
X107791029Y-84079983D01*
X107766015Y-83922049D01*
X107728727Y-83807288D01*
X107697896Y-83712396D01*
X107697895Y-83712393D01*
X107637152Y-83593181D01*
X107597815Y-83515978D01*
X107506288Y-83390001D01*
X107468247Y-83337641D01*
X107468243Y-83337636D01*
X107312363Y-83181756D01*
X107312358Y-83181752D01*
X107134025Y-83052187D01*
X107134024Y-83052186D01*
X107134022Y-83052185D01*
X107068984Y-83019046D01*
X106937606Y-82952104D01*
X106937603Y-82952103D01*
X106727952Y-82883985D01*
X106604928Y-82864500D01*
X106510222Y-82849500D01*
X104489778Y-82849500D01*
X104417201Y-82860995D01*
X104272047Y-82883985D01*
X104062396Y-82952103D01*
X104062393Y-82952104D01*
X103865974Y-83052187D01*
X103687641Y-83181752D01*
X103687636Y-83181756D01*
X103531756Y-83337636D01*
X103531752Y-83337641D01*
X103402187Y-83515974D01*
X103302104Y-83712393D01*
X103302103Y-83712396D01*
X103233985Y-83922047D01*
X103199500Y-84139778D01*
X95500000Y-84139778D01*
X95500000Y-71374000D01*
X95519685Y-71306961D01*
X95572489Y-71261206D01*
X95624000Y-71250000D01*
X162876000Y-71250000D01*
X162943039Y-71269685D01*
G37*
%TD.AperFunction*%
%TD*%
M02*
