%TF.GenerationSoftware,KiCad,Pcbnew,9.0.7*%
%TF.CreationDate,2026-02-27T18:35:03+01:00*%
%TF.ProjectId,5Volt_Power_Supply,35566f6c-745f-4506-9f77-65725f537570,rev?*%
%TF.SameCoordinates,Original*%
%TF.FileFunction,Copper,L2,Bot*%
%TF.FilePolarity,Positive*%
%FSLAX46Y46*%
G04 Gerber Fmt 4.6, Leading zero omitted, Abs format (unit mm)*
G04 Created by KiCad (PCBNEW 9.0.7) date 2026-02-27 18:35:03*
%MOMM*%
%LPD*%
G01*
G04 APERTURE LIST*
G04 Aperture macros list*
%AMRoundRect*
0 Rectangle with rounded corners*
0 $1 Rounding radius*
0 $2 $3 $4 $5 $6 $7 $8 $9 X,Y pos of 4 corners*
0 Add a 4 corners polygon primitive as box body*
4,1,4,$2,$3,$4,$5,$6,$7,$8,$9,$2,$3,0*
0 Add four circle primitives for the rounded corners*
1,1,$1+$1,$2,$3*
1,1,$1+$1,$4,$5*
1,1,$1+$1,$6,$7*
1,1,$1+$1,$8,$9*
0 Add four rect primitives between the rounded corners*
20,1,$1+$1,$2,$3,$4,$5,0*
20,1,$1+$1,$4,$5,$6,$7,0*
20,1,$1+$1,$6,$7,$8,$9,0*
20,1,$1+$1,$8,$9,$2,$3,0*%
G04 Aperture macros list end*
%TA.AperFunction,ComponentPad*%
%ADD10RoundRect,0.250000X1.550000X-0.650000X1.550000X0.650000X-1.550000X0.650000X-1.550000X-0.650000X0*%
%TD*%
%TA.AperFunction,ComponentPad*%
%ADD11O,3.600000X1.800000*%
%TD*%
%TA.AperFunction,ComponentPad*%
%ADD12RoundRect,0.250000X-1.550000X0.650000X-1.550000X-0.650000X1.550000X-0.650000X1.550000X0.650000X0*%
%TD*%
%TA.AperFunction,ComponentPad*%
%ADD13R,1.905000X2.000000*%
%TD*%
%TA.AperFunction,ComponentPad*%
%ADD14O,1.905000X2.000000*%
%TD*%
%TA.AperFunction,ComponentPad*%
%ADD15C,1.400000*%
%TD*%
%TA.AperFunction,ComponentPad*%
%ADD16R,1.800000X1.800000*%
%TD*%
%TA.AperFunction,ComponentPad*%
%ADD17C,1.800000*%
%TD*%
%TA.AperFunction,ComponentPad*%
%ADD18RoundRect,0.250000X-0.870000X-0.870000X0.870000X-0.870000X0.870000X0.870000X-0.870000X0.870000X0*%
%TD*%
%TA.AperFunction,ComponentPad*%
%ADD19C,2.240000*%
%TD*%
%TA.AperFunction,ComponentPad*%
%ADD20RoundRect,0.250000X0.350000X0.350000X-0.350000X0.350000X-0.350000X-0.350000X0.350000X-0.350000X0*%
%TD*%
%TA.AperFunction,ComponentPad*%
%ADD21C,1.200000*%
%TD*%
%TA.AperFunction,ComponentPad*%
%ADD22RoundRect,0.250000X-0.350000X-0.350000X0.350000X-0.350000X0.350000X0.350000X-0.350000X0.350000X0*%
%TD*%
%TA.AperFunction,ComponentPad*%
%ADD23RoundRect,0.250000X-0.750000X0.750000X-0.750000X-0.750000X0.750000X-0.750000X0.750000X0.750000X0*%
%TD*%
%TA.AperFunction,ComponentPad*%
%ADD24C,2.000000*%
%TD*%
%TA.AperFunction,ViaPad*%
%ADD25C,0.600000*%
%TD*%
%TA.AperFunction,Conductor*%
%ADD26C,0.200000*%
%TD*%
G04 APERTURE END LIST*
D10*
%TO.P,J2,1,Pin_1*%
%TO.N,Net-(D1-K)*%
X151567500Y-84945000D03*
D11*
%TO.P,J2,2,Pin_2*%
%TO.N,Net-(D2-K)*%
X151567500Y-81445000D03*
%TD*%
D12*
%TO.P,J1,1,Pin_1*%
%TO.N,GND*%
X105500000Y-80750000D03*
D11*
%TO.P,J1,2,Pin_2*%
%TO.N,Net-(J1-Pin_2)*%
X105500000Y-84250000D03*
%TD*%
D13*
%TO.P,U1,1,IN*%
%TO.N,Net-(D3-K)*%
X133960000Y-77950000D03*
D14*
%TO.P,U1,2,GND*%
%TO.N,GND*%
X136500000Y-77950000D03*
%TO.P,U1,3,OUT*%
%TO.N,Net-(J1-Pin_2)*%
X139040000Y-77950000D03*
%TD*%
D15*
%TO.P,R1,1*%
%TO.N,Net-(J1-Pin_2)*%
X143210000Y-77250000D03*
%TO.P,R1,2*%
%TO.N,Net-(D5-A)*%
X148290000Y-77250000D03*
%TD*%
D16*
%TO.P,D5,1,K*%
%TO.N,GND*%
X143475000Y-84265000D03*
D17*
%TO.P,D5,2,A*%
%TO.N,Net-(D5-A)*%
X146015000Y-84265000D03*
%TD*%
D18*
%TO.P,D4,1,K*%
%TO.N,Net-(D3-K)*%
X111820000Y-77750000D03*
D19*
%TO.P,D4,2,A*%
%TO.N,Net-(D2-K)*%
X114360000Y-77750000D03*
%TD*%
D18*
%TO.P,D3,1,K*%
%TO.N,Net-(D3-K)*%
X119320000Y-77750000D03*
D19*
%TO.P,D3,2,A*%
%TO.N,Net-(D1-K)*%
X121860000Y-77750000D03*
%TD*%
D18*
%TO.P,D2,1,K*%
%TO.N,Net-(D2-K)*%
X111570000Y-85000000D03*
D19*
%TO.P,D2,2,A*%
%TO.N,GND*%
X114110000Y-85000000D03*
%TD*%
D18*
%TO.P,D1,1,K*%
%TO.N,Net-(D1-K)*%
X118960000Y-85250000D03*
D19*
%TO.P,D1,2,A*%
%TO.N,GND*%
X121500000Y-85250000D03*
%TD*%
D20*
%TO.P,C3,1*%
%TO.N,Net-(J1-Pin_2)*%
X134500000Y-84750000D03*
D21*
%TO.P,C3,2*%
%TO.N,GND*%
X133000000Y-84750000D03*
%TD*%
D22*
%TO.P,C2,1*%
%TO.N,Net-(D3-K)*%
X138250000Y-85000000D03*
D21*
%TO.P,C2,2*%
%TO.N,GND*%
X139750000Y-85000000D03*
%TD*%
D23*
%TO.P,C1,1*%
%TO.N,Net-(D3-K)*%
X127750000Y-75500000D03*
D24*
%TO.P,C1,2*%
%TO.N,GND*%
X127750000Y-90500000D03*
%TD*%
D25*
%TO.N,Net-(D3-K)*%
X135500000Y-80750000D03*
%TO.N,Net-(J1-Pin_2)*%
X136500000Y-82750000D03*
%TO.N,Net-(D2-K)*%
X123500000Y-81500000D03*
%TD*%
D26*
%TO.N,Net-(D5-A)*%
X146000000Y-79500000D02*
X146000000Y-80750000D01*
X146000000Y-80750000D02*
X146015000Y-80765000D01*
X148250000Y-77250000D02*
X146000000Y-79500000D01*
X148290000Y-77250000D02*
X148250000Y-77250000D01*
X146015000Y-80765000D02*
X146015000Y-84265000D01*
%TO.N,Net-(D3-K)*%
X135500000Y-80750000D02*
X135500000Y-83250000D01*
X135500000Y-83250000D02*
X137250000Y-85000000D01*
X137250000Y-85000000D02*
X138250000Y-85000000D01*
%TO.N,Net-(J1-Pin_2)*%
X136500000Y-82750000D02*
X139040000Y-80210000D01*
X139040000Y-80210000D02*
X139040000Y-77950000D01*
%TO.N,Net-(D2-K)*%
X118110000Y-81500000D02*
X114360000Y-77750000D01*
X123500000Y-81500000D02*
X118110000Y-81500000D01*
%TD*%
%TA.AperFunction,Conductor*%
%TO.N,GND*%
G36*
X162943039Y-71269685D02*
G01*
X162988794Y-71322489D01*
X163000000Y-71374000D01*
X163000000Y-96376000D01*
X162980315Y-96443039D01*
X162927511Y-96488794D01*
X162876000Y-96500000D01*
X95624000Y-96500000D01*
X95556961Y-96480315D01*
X95511206Y-96427511D01*
X95500000Y-96376000D01*
X95500000Y-84139778D01*
X103199500Y-84139778D01*
X103199500Y-84360221D01*
X103233985Y-84577952D01*
X103302103Y-84787603D01*
X103302104Y-84787606D01*
X103402187Y-84984025D01*
X103531752Y-85162358D01*
X103531756Y-85162363D01*
X103687636Y-85318243D01*
X103687641Y-85318247D01*
X103800178Y-85400009D01*
X103865978Y-85447815D01*
X103973881Y-85502795D01*
X104062393Y-85547895D01*
X104062396Y-85547896D01*
X104167221Y-85581955D01*
X104272049Y-85616015D01*
X104489778Y-85650500D01*
X104489779Y-85650500D01*
X106510221Y-85650500D01*
X106510222Y-85650500D01*
X106727951Y-85616015D01*
X106937606Y-85547895D01*
X107134022Y-85447815D01*
X107312365Y-85318242D01*
X107468242Y-85162365D01*
X107597815Y-84984022D01*
X107697895Y-84787606D01*
X107766015Y-84577951D01*
X107800500Y-84360222D01*
X107800500Y-84139778D01*
X107791029Y-84079983D01*
X109949500Y-84079983D01*
X109949500Y-85920001D01*
X109949501Y-85920018D01*
X109960000Y-86022796D01*
X109960001Y-86022799D01*
X109985749Y-86100499D01*
X110015186Y-86189334D01*
X110107288Y-86338656D01*
X110231344Y-86462712D01*
X110380666Y-86554814D01*
X110547203Y-86609999D01*
X110649991Y-86620500D01*
X112490008Y-86620499D01*
X112592797Y-86609999D01*
X112759334Y-86554814D01*
X112908656Y-86462712D01*
X113032712Y-86338656D01*
X113124814Y-86189334D01*
X113179999Y-86022797D01*
X113190500Y-85920009D01*
X113190499Y-84329983D01*
X117339500Y-84329983D01*
X117339500Y-86170001D01*
X117339501Y-86170018D01*
X117350000Y-86272796D01*
X117350001Y-86272799D01*
X117405185Y-86439331D01*
X117405187Y-86439336D01*
X117440069Y-86495888D01*
X117497288Y-86588656D01*
X117621344Y-86712712D01*
X117770666Y-86804814D01*
X117937203Y-86859999D01*
X118039991Y-86870500D01*
X119880008Y-86870499D01*
X119982797Y-86859999D01*
X120149334Y-86804814D01*
X120298656Y-86712712D01*
X120422712Y-86588656D01*
X120514814Y-86439334D01*
X120569999Y-86272797D01*
X120580500Y-86170009D01*
X120580499Y-84349983D01*
X133399500Y-84349983D01*
X133399500Y-85150001D01*
X133399501Y-85150019D01*
X133410000Y-85252796D01*
X133410001Y-85252799D01*
X133458782Y-85400009D01*
X133465186Y-85419334D01*
X133557288Y-85568656D01*
X133681344Y-85692712D01*
X133830666Y-85784814D01*
X133997203Y-85839999D01*
X134099991Y-85850500D01*
X134900008Y-85850499D01*
X134900016Y-85850498D01*
X134900019Y-85850498D01*
X134956302Y-85844748D01*
X135002797Y-85839999D01*
X135169334Y-85784814D01*
X135318656Y-85692712D01*
X135442712Y-85568656D01*
X135534814Y-85419334D01*
X135589999Y-85252797D01*
X135600500Y-85150009D01*
X135600499Y-84499095D01*
X135620183Y-84432057D01*
X135672987Y-84386302D01*
X135742146Y-84376358D01*
X135805702Y-84405383D01*
X135812177Y-84411412D01*
X136881284Y-85480520D01*
X136881286Y-85480521D01*
X136881290Y-85480524D01*
X136919869Y-85502797D01*
X137018216Y-85559577D01*
X137129887Y-85589499D01*
X137189544Y-85625863D01*
X137211342Y-85663160D01*
X137212136Y-85662791D01*
X137215187Y-85669336D01*
X137250069Y-85725888D01*
X137307288Y-85818656D01*
X137431344Y-85942712D01*
X137580666Y-86034814D01*
X137747203Y-86089999D01*
X137849991Y-86100500D01*
X138650008Y-86100499D01*
X138650016Y-86100498D01*
X138650019Y-86100498D01*
X138706302Y-86094748D01*
X138752797Y-86089999D01*
X138919334Y-86034814D01*
X139068656Y-85942712D01*
X139192712Y-85818656D01*
X139284814Y-85669334D01*
X139339999Y-85502797D01*
X139350500Y-85400009D01*
X139350499Y-84599992D01*
X139348247Y-84577951D01*
X139339999Y-84497203D01*
X139339998Y-84497200D01*
X139284814Y-84330666D01*
X139192712Y-84181344D01*
X139166146Y-84154778D01*
X144614500Y-84154778D01*
X144614500Y-84375222D01*
X144623502Y-84432057D01*
X144648985Y-84592952D01*
X144717103Y-84802603D01*
X144717104Y-84802606D01*
X144817187Y-84999025D01*
X144946752Y-85177358D01*
X144946756Y-85177363D01*
X145102636Y-85333243D01*
X145102641Y-85333247D01*
X145194532Y-85400009D01*
X145280978Y-85462815D01*
X145409375Y-85528237D01*
X145477393Y-85562895D01*
X145477396Y-85562896D01*
X145559271Y-85589498D01*
X145687049Y-85631015D01*
X145904778Y-85665500D01*
X145904779Y-85665500D01*
X146125221Y-85665500D01*
X146125222Y-85665500D01*
X146342951Y-85631015D01*
X146552606Y-85562895D01*
X146749022Y-85462815D01*
X146927365Y-85333242D01*
X147083242Y-85177365D01*
X147212815Y-84999022D01*
X147312895Y-84802606D01*
X147381015Y-84592951D01*
X147415500Y-84375222D01*
X147415500Y-84244983D01*
X149267000Y-84244983D01*
X149267000Y-85645001D01*
X149267001Y-85645018D01*
X149277500Y-85747796D01*
X149277501Y-85747799D01*
X149332685Y-85914331D01*
X149332687Y-85914336D01*
X149367569Y-85970888D01*
X149424788Y-86063656D01*
X149548844Y-86187712D01*
X149698166Y-86279814D01*
X149864703Y-86334999D01*
X149967491Y-86345500D01*
X153167508Y-86345499D01*
X153270297Y-86334999D01*
X153436834Y-86279814D01*
X153586156Y-86187712D01*
X153710212Y-86063656D01*
X153802314Y-85914334D01*
X153857499Y-85747797D01*
X153868000Y-85645009D01*
X153867999Y-84244992D01*
X153857499Y-84142203D01*
X153802314Y-83975666D01*
X153710212Y-83826344D01*
X153586156Y-83702288D01*
X153485172Y-83640001D01*
X153436836Y-83610187D01*
X153436831Y-83610185D01*
X153435362Y-83609698D01*
X153270297Y-83555001D01*
X153270295Y-83555000D01*
X153167510Y-83544500D01*
X149967498Y-83544500D01*
X149967481Y-83544501D01*
X149864703Y-83555000D01*
X149864700Y-83555001D01*
X149698168Y-83610185D01*
X149698163Y-83610187D01*
X149548842Y-83702289D01*
X149424789Y-83826342D01*
X149332687Y-83975663D01*
X149332685Y-83975668D01*
X149332176Y-83977204D01*
X149277501Y-84142203D01*
X149277501Y-84142204D01*
X149277500Y-84142204D01*
X149267000Y-84244983D01*
X147415500Y-84244983D01*
X147415500Y-84154778D01*
X147381015Y-83937049D01*
X147332356Y-83787289D01*
X147312896Y-83727396D01*
X147312895Y-83727393D01*
X147271245Y-83645652D01*
X147212815Y-83530978D01*
X147183233Y-83490262D01*
X147083247Y-83352641D01*
X147083243Y-83352636D01*
X146927363Y-83196756D01*
X146927358Y-83196752D01*
X146749023Y-83067185D01*
X146683204Y-83033648D01*
X146632409Y-82985674D01*
X146615500Y-82923164D01*
X146615500Y-81334778D01*
X149267000Y-81334778D01*
X149267000Y-81555221D01*
X149301485Y-81772952D01*
X149369603Y-81982603D01*
X149369604Y-81982606D01*
X149406076Y-82054184D01*
X149440521Y-82121786D01*
X149469687Y-82179025D01*
X149599252Y-82357358D01*
X149599256Y-82357363D01*
X149755136Y-82513243D01*
X149755141Y-82513247D01*
X149910692Y-82626260D01*
X149933478Y-82642815D01*
X150061875Y-82708237D01*
X150129893Y-82742895D01*
X150129896Y-82742896D01*
X150234721Y-82776955D01*
X150339549Y-82811015D01*
X150557278Y-82845500D01*
X150557279Y-82845500D01*
X152577721Y-82845500D01*
X152577722Y-82845500D01*
X152795451Y-82811015D01*
X153005106Y-82742895D01*
X153201522Y-82642815D01*
X153379865Y-82513242D01*
X153535742Y-82357365D01*
X153665315Y-82179022D01*
X153765395Y-81982606D01*
X153833515Y-81772951D01*
X153868000Y-81555222D01*
X153868000Y-81334778D01*
X153833515Y-81117049D01*
X153765395Y-80907394D01*
X153765395Y-80907393D01*
X153705886Y-80790602D01*
X153665315Y-80710978D01*
X153636225Y-80670939D01*
X153535747Y-80532641D01*
X153535743Y-80532636D01*
X153379863Y-80376756D01*
X153379858Y-80376752D01*
X153201525Y-80247187D01*
X153201524Y-80247186D01*
X153201522Y-80247185D01*
X153138596Y-80215122D01*
X153005106Y-80147104D01*
X153005103Y-80147103D01*
X152795452Y-80078985D01*
X152686586Y-80061742D01*
X152577722Y-80044500D01*
X150557278Y-80044500D01*
X150484701Y-80055995D01*
X150339547Y-80078985D01*
X150129896Y-80147103D01*
X150129893Y-80147104D01*
X149933474Y-80247187D01*
X149755141Y-80376752D01*
X149755136Y-80376756D01*
X149599256Y-80532636D01*
X149599252Y-80532641D01*
X149469687Y-80710974D01*
X149369604Y-80907393D01*
X149369603Y-80907396D01*
X149301485Y-81117047D01*
X149267000Y-81334778D01*
X146615500Y-81334778D01*
X146615500Y-80685943D01*
X146611539Y-80671159D01*
X146611537Y-80671153D01*
X146604725Y-80645728D01*
X146600500Y-80613635D01*
X146600500Y-79800097D01*
X146620185Y-79733058D01*
X146636819Y-79712416D01*
X147260579Y-79088656D01*
X147894794Y-78454440D01*
X147956115Y-78420957D01*
X148003865Y-78421468D01*
X148004070Y-78420178D01*
X148195514Y-78450500D01*
X148195519Y-78450500D01*
X148384486Y-78450500D01*
X148571118Y-78420940D01*
X148573463Y-78420178D01*
X148750832Y-78362547D01*
X148919199Y-78276760D01*
X149072073Y-78165690D01*
X149205690Y-78032073D01*
X149316760Y-77879199D01*
X149402547Y-77710832D01*
X149460940Y-77531118D01*
X149470744Y-77469219D01*
X149490500Y-77344486D01*
X149490500Y-77155513D01*
X149460940Y-76968881D01*
X149433846Y-76885497D01*
X149402547Y-76789168D01*
X149402545Y-76789165D01*
X149402545Y-76789163D01*
X149316759Y-76620800D01*
X149296165Y-76592455D01*
X149205690Y-76467927D01*
X149072073Y-76334310D01*
X148919199Y-76223240D01*
X148864138Y-76195185D01*
X148750836Y-76137454D01*
X148571118Y-76079059D01*
X148384486Y-76049500D01*
X148384481Y-76049500D01*
X148195519Y-76049500D01*
X148195514Y-76049500D01*
X148008881Y-76079059D01*
X147829163Y-76137454D01*
X147660800Y-76223240D01*
X147626412Y-76248225D01*
X147507927Y-76334310D01*
X147507925Y-76334312D01*
X147507924Y-76334312D01*
X147374312Y-76467924D01*
X147374312Y-76467925D01*
X147374310Y-76467927D01*
X147346500Y-76506204D01*
X147263240Y-76620800D01*
X147177454Y-76789163D01*
X147119059Y-76968881D01*
X147089500Y-77155513D01*
X147089500Y-77344486D01*
X147109256Y-77469219D01*
X147100302Y-77538512D01*
X147074464Y-77576298D01*
X145631286Y-79019478D01*
X145519481Y-79131282D01*
X145519479Y-79131284D01*
X145494706Y-79174193D01*
X145484235Y-79192331D01*
X145484233Y-79192335D01*
X145440674Y-79267781D01*
X145440423Y-79268215D01*
X145399499Y-79420943D01*
X145399499Y-79420945D01*
X145399499Y-79589046D01*
X145399500Y-79589059D01*
X145399500Y-80670939D01*
X145399499Y-80670943D01*
X145399499Y-80829057D01*
X145413477Y-80881222D01*
X145414255Y-80893568D01*
X145413760Y-80895750D01*
X145414500Y-80901366D01*
X145414500Y-82923164D01*
X145394815Y-82990203D01*
X145346796Y-83033648D01*
X145280976Y-83067185D01*
X145102641Y-83196752D01*
X145102636Y-83196756D01*
X144946756Y-83352636D01*
X144946752Y-83352641D01*
X144817187Y-83530974D01*
X144717104Y-83727393D01*
X144717103Y-83727396D01*
X144648985Y-83937047D01*
X144626347Y-84079981D01*
X144614500Y-84154778D01*
X139166146Y-84154778D01*
X139068656Y-84057288D01*
X138975888Y-84000069D01*
X138919336Y-83965187D01*
X138919331Y-83965185D01*
X138917862Y-83964698D01*
X138752797Y-83910001D01*
X138752795Y-83910000D01*
X138650010Y-83899500D01*
X137849998Y-83899500D01*
X137849980Y-83899501D01*
X137747203Y-83910000D01*
X137747200Y-83910001D01*
X137580668Y-83965185D01*
X137580663Y-83965187D01*
X137431342Y-84057289D01*
X137381613Y-84107018D01*
X137320290Y-84140502D01*
X137250598Y-84135517D01*
X137206252Y-84107017D01*
X136783740Y-83684504D01*
X136750255Y-83623181D01*
X136755239Y-83553489D01*
X136797111Y-83497556D01*
X136823962Y-83482265D01*
X136879179Y-83459394D01*
X137010289Y-83371789D01*
X137121789Y-83260289D01*
X137209394Y-83129179D01*
X137269737Y-82983497D01*
X137296391Y-82849500D01*
X137300638Y-82828150D01*
X137333023Y-82766239D01*
X137334519Y-82764715D01*
X139398506Y-80700727D01*
X139398511Y-80700724D01*
X139408714Y-80690520D01*
X139408716Y-80690520D01*
X139520520Y-80578716D01*
X139599577Y-80441784D01*
X139640500Y-80289057D01*
X139640500Y-79398256D01*
X139660185Y-79331217D01*
X139708204Y-79287772D01*
X139801538Y-79240217D01*
X139986566Y-79105786D01*
X140148286Y-78944066D01*
X140282717Y-78759038D01*
X140386548Y-78555258D01*
X140420586Y-78450500D01*
X140457221Y-78337749D01*
X140457221Y-78337748D01*
X140457222Y-78337745D01*
X140493000Y-78111854D01*
X140493000Y-77788146D01*
X140457222Y-77562255D01*
X140457221Y-77562251D01*
X140457221Y-77562250D01*
X140386549Y-77344744D01*
X140316335Y-77206942D01*
X140316334Y-77206940D01*
X140290131Y-77155513D01*
X142009500Y-77155513D01*
X142009500Y-77344486D01*
X142039059Y-77531118D01*
X142097454Y-77710836D01*
X142136846Y-77788146D01*
X142183240Y-77879199D01*
X142294310Y-78032073D01*
X142427927Y-78165690D01*
X142580801Y-78276760D01*
X142660347Y-78317290D01*
X142749163Y-78362545D01*
X142749165Y-78362545D01*
X142749168Y-78362547D01*
X142825882Y-78387473D01*
X142928881Y-78420940D01*
X143115514Y-78450500D01*
X143115519Y-78450500D01*
X143304486Y-78450500D01*
X143491118Y-78420940D01*
X143493463Y-78420178D01*
X143670832Y-78362547D01*
X143839199Y-78276760D01*
X143992073Y-78165690D01*
X144125690Y-78032073D01*
X144236760Y-77879199D01*
X144322547Y-77710832D01*
X144380940Y-77531118D01*
X144390744Y-77469219D01*
X144410500Y-77344486D01*
X144410500Y-77155513D01*
X144380940Y-76968881D01*
X144353846Y-76885497D01*
X144322547Y-76789168D01*
X144322545Y-76789165D01*
X144322545Y-76789163D01*
X144236759Y-76620800D01*
X144216165Y-76592455D01*
X144125690Y-76467927D01*
X143992073Y-76334310D01*
X143839199Y-76223240D01*
X143784138Y-76195185D01*
X143670836Y-76137454D01*
X143491118Y-76079059D01*
X143304486Y-76049500D01*
X143304481Y-76049500D01*
X143115519Y-76049500D01*
X143115514Y-76049500D01*
X142928881Y-76079059D01*
X142749163Y-76137454D01*
X142580800Y-76223240D01*
X142546412Y-76248225D01*
X142427927Y-76334310D01*
X142427925Y-76334312D01*
X142427924Y-76334312D01*
X142294312Y-76467924D01*
X142294312Y-76467925D01*
X142294310Y-76467927D01*
X142266500Y-76506204D01*
X142183240Y-76620800D01*
X142097454Y-76789163D01*
X142039059Y-76968881D01*
X142009500Y-77155513D01*
X140290131Y-77155513D01*
X140282718Y-77140963D01*
X140262523Y-77113167D01*
X140148286Y-76955934D01*
X139986566Y-76794214D01*
X139801538Y-76659783D01*
X139597755Y-76555950D01*
X139380248Y-76485278D01*
X139194812Y-76455908D01*
X139154354Y-76449500D01*
X138925646Y-76449500D01*
X138885188Y-76455908D01*
X138699753Y-76485278D01*
X138699750Y-76485278D01*
X138482244Y-76555950D01*
X138278461Y-76659783D01*
X138185665Y-76727204D01*
X138093434Y-76794214D01*
X138093432Y-76794216D01*
X138093431Y-76794216D01*
X137931716Y-76955931D01*
X137931716Y-76955932D01*
X137931714Y-76955934D01*
X137899336Y-77000499D01*
X137797283Y-77140961D01*
X137693450Y-77344744D01*
X137622778Y-77562250D01*
X137622778Y-77562253D01*
X137587000Y-77788146D01*
X137587000Y-78111853D01*
X137622778Y-78337746D01*
X137622778Y-78337749D01*
X137693450Y-78555255D01*
X137693452Y-78555258D01*
X137797283Y-78759038D01*
X137931714Y-78944066D01*
X138093434Y-79105786D01*
X138278462Y-79240217D01*
X138371795Y-79287772D01*
X138422590Y-79335745D01*
X138439500Y-79398256D01*
X138439500Y-79909903D01*
X138419815Y-79976942D01*
X138403181Y-79997584D01*
X136485339Y-81915425D01*
X136469111Y-81924285D01*
X136455897Y-81937216D01*
X136425714Y-81947982D01*
X136424016Y-81948910D01*
X136422696Y-81949190D01*
X136421192Y-81949500D01*
X136421158Y-81949500D01*
X136266503Y-81980263D01*
X136261074Y-81982511D01*
X136249538Y-81984890D01*
X136225772Y-81982930D01*
X136202056Y-81985396D01*
X136191591Y-81980111D01*
X136179905Y-81979148D01*
X136160969Y-81964648D01*
X136139687Y-81953902D01*
X136133740Y-81943799D01*
X136124430Y-81936670D01*
X136116340Y-81914237D01*
X136104245Y-81893689D01*
X136101795Y-81873906D01*
X136100727Y-81870944D01*
X136101182Y-81868955D01*
X136100500Y-81863444D01*
X136100500Y-81329765D01*
X136120185Y-81262726D01*
X136121398Y-81260874D01*
X136209390Y-81129185D01*
X136209390Y-81129184D01*
X136209394Y-81129179D01*
X136212854Y-81120827D01*
X136267163Y-80989711D01*
X136269737Y-80983497D01*
X136300500Y-80828842D01*
X136300500Y-80671158D01*
X136300500Y-80671155D01*
X136300499Y-80671153D01*
X136282112Y-80578716D01*
X136269737Y-80516503D01*
X136238787Y-80441783D01*
X136209397Y-80370827D01*
X136209390Y-80370814D01*
X136121789Y-80239711D01*
X136121786Y-80239707D01*
X136010292Y-80128213D01*
X136010288Y-80128210D01*
X135879185Y-80040609D01*
X135879172Y-80040602D01*
X135733501Y-79980264D01*
X135733489Y-79980261D01*
X135578845Y-79949500D01*
X135578842Y-79949500D01*
X135421158Y-79949500D01*
X135421155Y-79949500D01*
X135266510Y-79980261D01*
X135266498Y-79980264D01*
X135120827Y-80040602D01*
X135120814Y-80040609D01*
X134989711Y-80128210D01*
X134989707Y-80128213D01*
X134878213Y-80239707D01*
X134878210Y-80239711D01*
X134790609Y-80370814D01*
X134790602Y-80370827D01*
X134730264Y-80516498D01*
X134730261Y-80516510D01*
X134699500Y-80671153D01*
X134699500Y-80828846D01*
X134730261Y-80983489D01*
X134730264Y-80983501D01*
X134790602Y-81129172D01*
X134790609Y-81129185D01*
X134878602Y-81260874D01*
X134899480Y-81327551D01*
X134899500Y-81329765D01*
X134899500Y-83163330D01*
X134899499Y-83163348D01*
X134899499Y-83329054D01*
X134899498Y-83329054D01*
X134901798Y-83337636D01*
X134930616Y-83445187D01*
X134942527Y-83489636D01*
X134940190Y-83490262D01*
X134946340Y-83547533D01*
X134915057Y-83610008D01*
X134854963Y-83645652D01*
X134824313Y-83649500D01*
X134099998Y-83649500D01*
X134099980Y-83649501D01*
X133997203Y-83660000D01*
X133997200Y-83660001D01*
X133830668Y-83715185D01*
X133830663Y-83715187D01*
X133681342Y-83807289D01*
X133557289Y-83931342D01*
X133465187Y-84080663D01*
X133465185Y-84080668D01*
X133445598Y-84139778D01*
X133410001Y-84247203D01*
X133410001Y-84247204D01*
X133410000Y-84247204D01*
X133399500Y-84349983D01*
X120580499Y-84349983D01*
X120580499Y-84329992D01*
X120569999Y-84227203D01*
X120514814Y-84060666D01*
X120422712Y-83911344D01*
X120298656Y-83787288D01*
X120181761Y-83715187D01*
X120149336Y-83695187D01*
X120149331Y-83695185D01*
X120117098Y-83684504D01*
X119982797Y-83640001D01*
X119982795Y-83640000D01*
X119880010Y-83629500D01*
X118039998Y-83629500D01*
X118039981Y-83629501D01*
X117937203Y-83640000D01*
X117937200Y-83640001D01*
X117770668Y-83695185D01*
X117770663Y-83695187D01*
X117621342Y-83787289D01*
X117497289Y-83911342D01*
X117405187Y-84060663D01*
X117405185Y-84060668D01*
X117398558Y-84080668D01*
X117350001Y-84227203D01*
X117350001Y-84227204D01*
X117350000Y-84227204D01*
X117339500Y-84329983D01*
X113190499Y-84329983D01*
X113190499Y-84079992D01*
X113179999Y-83977203D01*
X113124814Y-83810666D01*
X113032712Y-83661344D01*
X112908656Y-83537288D01*
X112782369Y-83459394D01*
X112759336Y-83445187D01*
X112759331Y-83445185D01*
X112757862Y-83444698D01*
X112592797Y-83390001D01*
X112592795Y-83390000D01*
X112490010Y-83379500D01*
X110649998Y-83379500D01*
X110649981Y-83379501D01*
X110547203Y-83390000D01*
X110547200Y-83390001D01*
X110380668Y-83445185D01*
X110380663Y-83445187D01*
X110231342Y-83537289D01*
X110107289Y-83661342D01*
X110015187Y-83810663D01*
X110015186Y-83810666D01*
X109960001Y-83977203D01*
X109960001Y-83977204D01*
X109960000Y-83977204D01*
X109949500Y-84079983D01*
X107791029Y-84079983D01*
X107766015Y-83922049D01*
X107728727Y-83807288D01*
X107697896Y-83712396D01*
X107697895Y-83712393D01*
X107617698Y-83555001D01*
X107597815Y-83515978D01*
X107573318Y-83482261D01*
X107468247Y-83337641D01*
X107468243Y-83337636D01*
X107312363Y-83181756D01*
X107312358Y-83181752D01*
X107134025Y-83052187D01*
X107134024Y-83052186D01*
X107134022Y-83052185D01*
X107071096Y-83020122D01*
X106937606Y-82952104D01*
X106937603Y-82952103D01*
X106727952Y-82883985D01*
X106619086Y-82866742D01*
X106510222Y-82849500D01*
X104489778Y-82849500D01*
X104417201Y-82860995D01*
X104272047Y-82883985D01*
X104062396Y-82952103D01*
X104062393Y-82952104D01*
X103865974Y-83052187D01*
X103687641Y-83181752D01*
X103687636Y-83181756D01*
X103531756Y-83337636D01*
X103531752Y-83337641D01*
X103402187Y-83515974D01*
X103302104Y-83712393D01*
X103302103Y-83712396D01*
X103233985Y-83922047D01*
X103199500Y-84139778D01*
X95500000Y-84139778D01*
X95500000Y-76829983D01*
X110199500Y-76829983D01*
X110199500Y-78670001D01*
X110199501Y-78670018D01*
X110210000Y-78772796D01*
X110210001Y-78772799D01*
X110265185Y-78939331D01*
X110265187Y-78939336D01*
X110268105Y-78944067D01*
X110357288Y-79088656D01*
X110481344Y-79212712D01*
X110630666Y-79304814D01*
X110797203Y-79359999D01*
X110899991Y-79370500D01*
X112740008Y-79370499D01*
X112842797Y-79359999D01*
X113009334Y-79304814D01*
X113158656Y-79212712D01*
X113276348Y-79095019D01*
X113337667Y-79061537D01*
X113407359Y-79066521D01*
X113436908Y-79082383D01*
X113510673Y-79135976D01*
X113618050Y-79190687D01*
X113737939Y-79251774D01*
X113737941Y-79251774D01*
X113737944Y-79251776D01*
X113848725Y-79287771D01*
X113980531Y-79330598D01*
X114232459Y-79370500D01*
X114232464Y-79370500D01*
X114487541Y-79370500D01*
X114739468Y-79330598D01*
X114810414Y-79307546D01*
X114932798Y-79267780D01*
X115002637Y-79265786D01*
X115058796Y-79298031D01*
X117625139Y-81864374D01*
X117625149Y-81864385D01*
X117629479Y-81868715D01*
X117629480Y-81868716D01*
X117741284Y-81980520D01*
X117812763Y-82021788D01*
X117878215Y-82059577D01*
X118030943Y-82100501D01*
X118030946Y-82100501D01*
X118196653Y-82100501D01*
X118196669Y-82100500D01*
X122920234Y-82100500D01*
X122987273Y-82120185D01*
X122989125Y-82121398D01*
X123120814Y-82209390D01*
X123120827Y-82209397D01*
X123266498Y-82269735D01*
X123266503Y-82269737D01*
X123421153Y-82300499D01*
X123421156Y-82300500D01*
X123421158Y-82300500D01*
X123578844Y-82300500D01*
X123578845Y-82300499D01*
X123733497Y-82269737D01*
X123879179Y-82209394D01*
X124010289Y-82121789D01*
X124121789Y-82010289D01*
X124209394Y-81879179D01*
X124269737Y-81733497D01*
X124300500Y-81578842D01*
X124300500Y-81421158D01*
X124300500Y-81421155D01*
X124300499Y-81421153D01*
X124283318Y-81334778D01*
X124269737Y-81266503D01*
X124267163Y-81260289D01*
X124209397Y-81120827D01*
X124209390Y-81120814D01*
X124121789Y-80989711D01*
X124121786Y-80989707D01*
X124010292Y-80878213D01*
X124010288Y-80878210D01*
X123879185Y-80790609D01*
X123879172Y-80790602D01*
X123733501Y-80730264D01*
X123733489Y-80730261D01*
X123578845Y-80699500D01*
X123578842Y-80699500D01*
X123421158Y-80699500D01*
X123421155Y-80699500D01*
X123266510Y-80730261D01*
X123266498Y-80730264D01*
X123120827Y-80790602D01*
X123120814Y-80790609D01*
X122989125Y-80878602D01*
X122922447Y-80899480D01*
X122920234Y-80899500D01*
X118410097Y-80899500D01*
X118343058Y-80879815D01*
X118322416Y-80863181D01*
X115908031Y-78448796D01*
X115874546Y-78387473D01*
X115877780Y-78322798D01*
X115940598Y-78129468D01*
X115943388Y-78111853D01*
X115980500Y-77877541D01*
X115980500Y-77622458D01*
X115940598Y-77370531D01*
X115887443Y-77206940D01*
X115861776Y-77127944D01*
X115861774Y-77127941D01*
X115861774Y-77127939D01*
X115796840Y-77000500D01*
X115745976Y-76900673D01*
X115745896Y-76900563D01*
X115745280Y-76899714D01*
X115694617Y-76829983D01*
X117699500Y-76829983D01*
X117699500Y-78670001D01*
X117699501Y-78670018D01*
X117710000Y-78772796D01*
X117710001Y-78772799D01*
X117765185Y-78939331D01*
X117765187Y-78939336D01*
X117768105Y-78944067D01*
X117857288Y-79088656D01*
X117981344Y-79212712D01*
X118130666Y-79304814D01*
X118297203Y-79359999D01*
X118399991Y-79370500D01*
X120240008Y-79370499D01*
X120342797Y-79359999D01*
X120509334Y-79304814D01*
X120658656Y-79212712D01*
X120776348Y-79095019D01*
X120837667Y-79061537D01*
X120907359Y-79066521D01*
X120936908Y-79082383D01*
X121010673Y-79135976D01*
X121118050Y-79190687D01*
X121237939Y-79251774D01*
X121237941Y-79251774D01*
X121237944Y-79251776D01*
X121348725Y-79287771D01*
X121480531Y-79330598D01*
X121732459Y-79370500D01*
X121732464Y-79370500D01*
X121987541Y-79370500D01*
X122239468Y-79330598D01*
X122310414Y-79307546D01*
X122482056Y-79251776D01*
X122709327Y-79135976D01*
X122915685Y-78986048D01*
X123096048Y-78805685D01*
X123245976Y-78599327D01*
X123361776Y-78372056D01*
X123440598Y-78129468D01*
X123443388Y-78111853D01*
X123480500Y-77877541D01*
X123480500Y-77622458D01*
X123440598Y-77370531D01*
X123387443Y-77206940D01*
X123361776Y-77127944D01*
X123361774Y-77127941D01*
X123361774Y-77127939D01*
X123280730Y-76968882D01*
X123245976Y-76900673D01*
X123096048Y-76694315D01*
X122915685Y-76513952D01*
X122709327Y-76364024D01*
X122651010Y-76334310D01*
X122482060Y-76248225D01*
X122239468Y-76169401D01*
X121987541Y-76129500D01*
X121987536Y-76129500D01*
X121732464Y-76129500D01*
X121732459Y-76129500D01*
X121480531Y-76169401D01*
X121237939Y-76248225D01*
X121010674Y-76364023D01*
X121010672Y-76364024D01*
X120936910Y-76417615D01*
X120871104Y-76441094D01*
X120803050Y-76425268D01*
X120776345Y-76404977D01*
X120658657Y-76287289D01*
X120658656Y-76287288D01*
X120509334Y-76195186D01*
X120342797Y-76140001D01*
X120342795Y-76140000D01*
X120240010Y-76129500D01*
X118399998Y-76129500D01*
X118399981Y-76129501D01*
X118297203Y-76140000D01*
X118297200Y-76140001D01*
X118130668Y-76195185D01*
X118130663Y-76195187D01*
X117981342Y-76287289D01*
X117857289Y-76411342D01*
X117765187Y-76560663D01*
X117765185Y-76560668D01*
X117745259Y-76620801D01*
X117710001Y-76727203D01*
X117710001Y-76727204D01*
X117710000Y-76727204D01*
X117699500Y-76829983D01*
X115694617Y-76829983D01*
X115596048Y-76694315D01*
X115415685Y-76513952D01*
X115209327Y-76364024D01*
X115151010Y-76334310D01*
X114982060Y-76248225D01*
X114739468Y-76169401D01*
X114487541Y-76129500D01*
X114487536Y-76129500D01*
X114232464Y-76129500D01*
X114232459Y-76129500D01*
X113980531Y-76169401D01*
X113737939Y-76248225D01*
X113510674Y-76364023D01*
X113510672Y-76364024D01*
X113436910Y-76417615D01*
X113371104Y-76441094D01*
X113303050Y-76425268D01*
X113276345Y-76404977D01*
X113158657Y-76287289D01*
X113158656Y-76287288D01*
X113009334Y-76195186D01*
X112842797Y-76140001D01*
X112842795Y-76140000D01*
X112740010Y-76129500D01*
X110899998Y-76129500D01*
X110899981Y-76129501D01*
X110797203Y-76140000D01*
X110797200Y-76140001D01*
X110630668Y-76195185D01*
X110630663Y-76195187D01*
X110481342Y-76287289D01*
X110357289Y-76411342D01*
X110265187Y-76560663D01*
X110265185Y-76560668D01*
X110245259Y-76620801D01*
X110210001Y-76727203D01*
X110210001Y-76727204D01*
X110210000Y-76727204D01*
X110199500Y-76829983D01*
X95500000Y-76829983D01*
X95500000Y-74699983D01*
X126249500Y-74699983D01*
X126249500Y-76300001D01*
X126249501Y-76300018D01*
X126260000Y-76402796D01*
X126260001Y-76402799D01*
X126294267Y-76506206D01*
X126315186Y-76569334D01*
X126407288Y-76718656D01*
X126531344Y-76842712D01*
X126680666Y-76934814D01*
X126847203Y-76989999D01*
X126949991Y-77000500D01*
X128550008Y-77000499D01*
X128652797Y-76989999D01*
X128819334Y-76934814D01*
X128872315Y-76902135D01*
X132507000Y-76902135D01*
X132507000Y-78997870D01*
X132507001Y-78997876D01*
X132513408Y-79057483D01*
X132563702Y-79192328D01*
X132563706Y-79192335D01*
X132649952Y-79307544D01*
X132649955Y-79307547D01*
X132765164Y-79393793D01*
X132765171Y-79393797D01*
X132900017Y-79444091D01*
X132900016Y-79444091D01*
X132906944Y-79444835D01*
X132959627Y-79450500D01*
X134960372Y-79450499D01*
X135019983Y-79444091D01*
X135154831Y-79393796D01*
X135270046Y-79307546D01*
X135356296Y-79192331D01*
X135406591Y-79057483D01*
X135413000Y-78997873D01*
X135412999Y-76902128D01*
X135406591Y-76842517D01*
X135386691Y-76789163D01*
X135356297Y-76707671D01*
X135356293Y-76707664D01*
X135270047Y-76592455D01*
X135270044Y-76592452D01*
X135154835Y-76506206D01*
X135154828Y-76506202D01*
X135019982Y-76455908D01*
X135019983Y-76455908D01*
X134960383Y-76449501D01*
X134960381Y-76449500D01*
X134960373Y-76449500D01*
X134960364Y-76449500D01*
X132959629Y-76449500D01*
X132959623Y-76449501D01*
X132900016Y-76455908D01*
X132765171Y-76506202D01*
X132765164Y-76506206D01*
X132649955Y-76592452D01*
X132649952Y-76592455D01*
X132563706Y-76707664D01*
X132563702Y-76707671D01*
X132513408Y-76842517D01*
X132507259Y-76899714D01*
X132507001Y-76902123D01*
X132507000Y-76902135D01*
X128872315Y-76902135D01*
X128968656Y-76842712D01*
X129092712Y-76718656D01*
X129184814Y-76569334D01*
X129239999Y-76402797D01*
X129250500Y-76300009D01*
X129250499Y-74699992D01*
X129239999Y-74597203D01*
X129184814Y-74430666D01*
X129092712Y-74281344D01*
X128968656Y-74157288D01*
X128819334Y-74065186D01*
X128652797Y-74010001D01*
X128652795Y-74010000D01*
X128550010Y-73999500D01*
X126949998Y-73999500D01*
X126949981Y-73999501D01*
X126847203Y-74010000D01*
X126847200Y-74010001D01*
X126680668Y-74065185D01*
X126680663Y-74065187D01*
X126531342Y-74157289D01*
X126407289Y-74281342D01*
X126315187Y-74430663D01*
X126315186Y-74430666D01*
X126260001Y-74597203D01*
X126260001Y-74597204D01*
X126260000Y-74597204D01*
X126249500Y-74699983D01*
X95500000Y-74699983D01*
X95500000Y-71374000D01*
X95519685Y-71306961D01*
X95572489Y-71261206D01*
X95624000Y-71250000D01*
X162876000Y-71250000D01*
X162943039Y-71269685D01*
G37*
%TD.AperFunction*%
%TD*%
M02*
